<mxfile host="app.diagrams.net" modified="2023-11-29T23:21:43.510Z" agent="Mozilla/5.0 (Windows NT 10.0; Win64; x64) AppleWebKit/537.36 (KHTML, like Gecko) Chrome/116.0.0.0 Safari/537.36" etag="IuWZE1URPAB2HlREMRpg" version="22.1.5" type="github">
  <diagram name="Page-1" id="2YBvvXClWsGukQMizWep">
    <mxGraphModel dx="1676" dy="2071" grid="1" gridSize="10" guides="1" tooltips="1" connect="1" arrows="1" fold="1" page="1" pageScale="1" pageWidth="850" pageHeight="1100" background="none" math="0" shadow="0">
      <root>
        <mxCell id="0" />
        <mxCell id="1" parent="0" />
        <mxCell id="RRASFoo9B7p19ly4RnA5-65" style="rounded=0;sketch=1;hachureGap=4;jiggle=2;curveFitting=1;orthogonalLoop=1;jettySize=auto;html=1;elbow=horizontal;fontFamily=Architects Daughter;fontSource=https%3A%2F%2Ffonts.googleapis.com%2Fcss%3Ffamily%3DArchitects%2BDaughter;fontSize=16;entryX=0;entryY=0.5;entryDx=0;entryDy=0;" edge="1" parent="1" source="aM9ryv3xv72pqoxQDRHE-2" target="RRASFoo9B7p19ly4RnA5-80">
          <mxGeometry relative="1" as="geometry">
            <mxPoint x="155.00000000000023" y="120" as="sourcePoint" />
            <mxPoint x="805" y="120" as="targetPoint" />
          </mxGeometry>
        </mxCell>
        <mxCell id="RRASFoo9B7p19ly4RnA5-66" value="&lt;font style=&quot;font-size: 12px;&quot;&gt;Menu()&lt;/font&gt;" style="edgeLabel;html=1;align=center;verticalAlign=middle;resizable=0;points=[];fontSize=20;fontFamily=Architects Daughter;" vertex="1" connectable="0" parent="RRASFoo9B7p19ly4RnA5-65">
          <mxGeometry x="0.6401" y="3" relative="1" as="geometry">
            <mxPoint x="-25" y="3" as="offset" />
          </mxGeometry>
        </mxCell>
        <mxCell id="aM9ryv3xv72pqoxQDRHE-1" value="::Main" style="shape=umlLifeline;perimeter=lifelinePerimeter;whiteSpace=wrap;html=1;container=0;dropTarget=0;collapsible=0;recursiveResize=0;outlineConnect=0;portConstraint=eastwest;newEdgeStyle={&quot;edgeStyle&quot;:&quot;elbowEdgeStyle&quot;,&quot;elbow&quot;:&quot;vertical&quot;,&quot;curved&quot;:0,&quot;rounded&quot;:0};fontFamily=Architects Daughter;fontSource=https%3A%2F%2Ffonts.googleapis.com%2Fcss%3Ffamily%3DArchitects%2BDaughter;sketch=1;curveFitting=1;jiggle=2;" parent="1" vertex="1">
          <mxGeometry x="100" y="40" width="100" height="300" as="geometry" />
        </mxCell>
        <mxCell id="aM9ryv3xv72pqoxQDRHE-2" value="" style="html=1;points=[];perimeter=orthogonalPerimeter;outlineConnect=0;targetShapes=umlLifeline;portConstraint=eastwest;newEdgeStyle={&quot;edgeStyle&quot;:&quot;elbowEdgeStyle&quot;,&quot;elbow&quot;:&quot;vertical&quot;,&quot;curved&quot;:0,&quot;rounded&quot;:0};fontFamily=Architects Daughter;fontSource=https%3A%2F%2Ffonts.googleapis.com%2Fcss%3Ffamily%3DArchitects%2BDaughter;sketch=1;curveFitting=1;jiggle=2;" parent="aM9ryv3xv72pqoxQDRHE-1" vertex="1">
          <mxGeometry x="45" y="70" width="10" height="190" as="geometry" />
        </mxCell>
        <mxCell id="aM9ryv3xv72pqoxQDRHE-3" value="main()" style="html=1;verticalAlign=bottom;startArrow=oval;endArrow=block;startSize=8;edgeStyle=elbowEdgeStyle;elbow=horizontal;curved=0;rounded=0;fontFamily=Architects Daughter;fontSource=https%3A%2F%2Ffonts.googleapis.com%2Fcss%3Ffamily%3DArchitects%2BDaughter;sketch=1;curveFitting=1;jiggle=2;" parent="aM9ryv3xv72pqoxQDRHE-1" target="aM9ryv3xv72pqoxQDRHE-2" edge="1">
          <mxGeometry relative="1" as="geometry">
            <mxPoint x="-15" y="70" as="sourcePoint" />
          </mxGeometry>
        </mxCell>
        <mxCell id="RRASFoo9B7p19ly4RnA5-67" style="edgeStyle=elbowEdgeStyle;rounded=0;sketch=1;hachureGap=4;jiggle=2;curveFitting=1;orthogonalLoop=1;jettySize=auto;html=1;elbow=vertical;curved=0;fontFamily=Architects Daughter;fontSource=https%3A%2F%2Ffonts.googleapis.com%2Fcss%3Ffamily%3DArchitects%2BDaughter;fontSize=16;" edge="1" parent="1" target="RRASFoo9B7p19ly4RnA5-49">
          <mxGeometry relative="1" as="geometry">
            <mxPoint x="309.4473684210525" y="169.99842105263167" as="sourcePoint" />
            <mxPoint x="485" y="169.99842105263167" as="targetPoint" />
          </mxGeometry>
        </mxCell>
        <mxCell id="RRASFoo9B7p19ly4RnA5-75" value="&lt;font style=&quot;font-size: 12px;&quot;&gt;Inscription()&lt;/font&gt;" style="edgeLabel;html=1;align=center;verticalAlign=middle;resizable=0;points=[];fontSize=20;fontFamily=Architects Daughter;" vertex="1" connectable="0" parent="RRASFoo9B7p19ly4RnA5-67">
          <mxGeometry x="0.1681" y="1" relative="1" as="geometry">
            <mxPoint as="offset" />
          </mxGeometry>
        </mxCell>
        <mxCell id="aM9ryv3xv72pqoxQDRHE-5" value=":Adhérents" style="shape=umlLifeline;perimeter=lifelinePerimeter;whiteSpace=wrap;html=1;container=0;dropTarget=0;collapsible=0;recursiveResize=0;outlineConnect=0;portConstraint=eastwest;newEdgeStyle={&quot;edgeStyle&quot;:&quot;elbowEdgeStyle&quot;,&quot;elbow&quot;:&quot;vertical&quot;,&quot;curved&quot;:0,&quot;rounded&quot;:0};fontFamily=Architects Daughter;fontSource=https%3A%2F%2Ffonts.googleapis.com%2Fcss%3Ffamily%3DArchitects%2BDaughter;sketch=1;curveFitting=1;jiggle=2;" parent="1" vertex="1">
          <mxGeometry x="260" y="40" width="100" height="300" as="geometry" />
        </mxCell>
        <mxCell id="aM9ryv3xv72pqoxQDRHE-6" value="" style="html=1;points=[];perimeter=orthogonalPerimeter;outlineConnect=0;targetShapes=umlLifeline;portConstraint=eastwest;newEdgeStyle={&quot;edgeStyle&quot;:&quot;elbowEdgeStyle&quot;,&quot;elbow&quot;:&quot;vertical&quot;,&quot;curved&quot;:0,&quot;rounded&quot;:0};fontFamily=Architects Daughter;fontSource=https%3A%2F%2Ffonts.googleapis.com%2Fcss%3Ffamily%3DArchitects%2BDaughter;sketch=1;curveFitting=1;jiggle=2;" parent="aM9ryv3xv72pqoxQDRHE-5" vertex="1">
          <mxGeometry x="45" y="70" width="10" height="180" as="geometry" />
        </mxCell>
        <mxCell id="RRASFoo9B7p19ly4RnA5-60" style="edgeStyle=elbowEdgeStyle;rounded=0;sketch=1;hachureGap=4;jiggle=2;curveFitting=1;orthogonalLoop=1;jettySize=auto;html=1;elbow=vertical;curved=0;entryX=0;entryY=0.5;entryDx=0;entryDy=0;fontFamily=Architects Daughter;fontSource=https%3A%2F%2Ffonts.googleapis.com%2Fcss%3Ffamily%3DArchitects%2BDaughter;fontSize=16;" edge="1" parent="1">
          <mxGeometry relative="1" as="geometry">
            <mxPoint x="951.6700000000001" y="160.13043478260875" as="sourcePoint" />
            <mxPoint x="1040" y="160" as="targetPoint" />
          </mxGeometry>
        </mxCell>
        <mxCell id="RRASFoo9B7p19ly4RnA5-81" value="&lt;font style=&quot;font-size: 12px;&quot;&gt;Update()&lt;/font&gt;" style="edgeLabel;html=1;align=center;verticalAlign=middle;resizable=0;points=[];fontSize=20;fontFamily=Architects Daughter;" vertex="1" connectable="0" parent="RRASFoo9B7p19ly4RnA5-60">
          <mxGeometry x="-0.0638" y="-2" relative="1" as="geometry">
            <mxPoint x="1" as="offset" />
          </mxGeometry>
        </mxCell>
        <mxCell id="RRASFoo9B7p19ly4RnA5-30" value="&lt;font style=&quot;font-size: 12px;&quot;&gt;:Formulaire&lt;br&gt;&lt;/font&gt;" style="shape=umlLifeline;perimeter=lifelinePerimeter;whiteSpace=wrap;html=1;container=0;dropTarget=0;collapsible=0;recursiveResize=0;outlineConnect=0;portConstraint=eastwest;newEdgeStyle={&quot;edgeStyle&quot;:&quot;elbowEdgeStyle&quot;,&quot;elbow&quot;:&quot;vertical&quot;,&quot;curved&quot;:0,&quot;rounded&quot;:0};fontFamily=Architects Daughter;fontSource=https%3A%2F%2Ffonts.googleapis.com%2Fcss%3Ffamily%3DArchitects%2BDaughter;sketch=1;curveFitting=1;jiggle=2;hachureGap=4;fontSize=20;" vertex="1" parent="1">
          <mxGeometry x="896.67" y="40" width="100" height="300" as="geometry" />
        </mxCell>
        <mxCell id="RRASFoo9B7p19ly4RnA5-31" value="" style="html=1;points=[];perimeter=orthogonalPerimeter;outlineConnect=0;targetShapes=umlLifeline;portConstraint=eastwest;newEdgeStyle={&quot;edgeStyle&quot;:&quot;elbowEdgeStyle&quot;,&quot;elbow&quot;:&quot;vertical&quot;,&quot;curved&quot;:0,&quot;rounded&quot;:0};fontFamily=Architects Daughter;fontSource=https%3A%2F%2Ffonts.googleapis.com%2Fcss%3Ffamily%3DArchitects%2BDaughter;sketch=1;curveFitting=1;jiggle=2;hachureGap=4;fontSize=20;" vertex="1" parent="RRASFoo9B7p19ly4RnA5-30">
          <mxGeometry x="45" y="70" width="10" height="110" as="geometry" />
        </mxCell>
        <mxCell id="RRASFoo9B7p19ly4RnA5-59" style="rounded=0;sketch=1;hachureGap=4;jiggle=2;curveFitting=1;orthogonalLoop=1;jettySize=auto;html=1;fontFamily=Architects Daughter;fontSource=https%3A%2F%2Ffonts.googleapis.com%2Fcss%3Ffamily%3DArchitects%2BDaughter;fontSize=16;exitX=1;exitY=0.5;exitDx=0;exitDy=0;" edge="1" parent="1">
          <mxGeometry relative="1" as="geometry">
            <mxPoint x="850" y="160" as="sourcePoint" />
            <mxPoint x="941.6700000000001" y="160" as="targetPoint" />
          </mxGeometry>
        </mxCell>
        <mxCell id="RRASFoo9B7p19ly4RnA5-77" value="&lt;span style=&quot;font-size: 12px;&quot;&gt;Input_data&lt;/span&gt;" style="edgeLabel;html=1;align=center;verticalAlign=middle;resizable=0;points=[];fontSize=20;fontFamily=Architects Daughter;" vertex="1" connectable="0" parent="RRASFoo9B7p19ly4RnA5-59">
          <mxGeometry x="0.0135" y="6" relative="1" as="geometry">
            <mxPoint as="offset" />
          </mxGeometry>
        </mxCell>
        <mxCell id="RRASFoo9B7p19ly4RnA5-55" value="&lt;font style=&quot;font-size: 16px;&quot;&gt;Base de données&lt;/font&gt;" style="swimlane;whiteSpace=wrap;html=1;sketch=1;hachureGap=4;jiggle=2;curveFitting=1;fontFamily=Architects Daughter;fontSource=https%3A%2F%2Ffonts.googleapis.com%2Fcss%3Ffamily%3DArchitects%2BDaughter;fontSize=20;fillColor=#dae8fc;strokeColor=#6c8ebf;" vertex="1" parent="1">
          <mxGeometry x="1040" y="-10" width="540" height="370" as="geometry" />
        </mxCell>
        <mxCell id="RRASFoo9B7p19ly4RnA5-11" value="" style="edgeStyle=elbowEdgeStyle;rounded=0;sketch=1;hachureGap=4;jiggle=2;curveFitting=1;orthogonalLoop=1;jettySize=auto;html=1;elbow=vertical;curved=0;fontFamily=Architects Daughter;fontSource=https%3A%2F%2Ffonts.googleapis.com%2Fcss%3Ffamily%3DArchitects%2BDaughter;fontSize=16;startArrow=classic;startFill=1;" edge="1" parent="RRASFoo9B7p19ly4RnA5-55">
          <mxGeometry relative="1" as="geometry">
            <mxPoint x="95" y="209.99999999999977" as="sourcePoint" />
            <mxPoint x="265" y="209.99999999999977" as="targetPoint" />
            <Array as="points">
              <mxPoint x="120" y="210" />
            </Array>
          </mxGeometry>
        </mxCell>
        <mxCell id="RRASFoo9B7p19ly4RnA5-78" value="&lt;font style=&quot;font-size: 12px;&quot;&gt;Jointures&lt;/font&gt;" style="edgeLabel;html=1;align=center;verticalAlign=middle;resizable=0;points=[];fontSize=20;fontFamily=Architects Daughter;" vertex="1" connectable="0" parent="RRASFoo9B7p19ly4RnA5-11">
          <mxGeometry x="0.0113" y="-1" relative="1" as="geometry">
            <mxPoint as="offset" />
          </mxGeometry>
        </mxCell>
        <mxCell id="RRASFoo9B7p19ly4RnA5-6" value="&lt;font style=&quot;font-size: 12px;&quot;&gt;&lt;font style=&quot;font-size: 12px;&quot;&gt;:&lt;/font&gt;Lignes-frais&amp;nbsp;&lt;/font&gt;" style="shape=umlLifeline;perimeter=lifelinePerimeter;whiteSpace=wrap;html=1;container=0;dropTarget=0;collapsible=0;recursiveResize=0;outlineConnect=0;portConstraint=eastwest;newEdgeStyle={&quot;edgeStyle&quot;:&quot;elbowEdgeStyle&quot;,&quot;elbow&quot;:&quot;vertical&quot;,&quot;curved&quot;:0,&quot;rounded&quot;:0};fontFamily=Architects Daughter;fontSource=https%3A%2F%2Ffonts.googleapis.com%2Fcss%3Ffamily%3DArchitects%2BDaughter;sketch=1;curveFitting=1;jiggle=2;hachureGap=4;fontSize=20;" vertex="1" parent="RRASFoo9B7p19ly4RnA5-55">
          <mxGeometry x="40" y="50" width="100" height="300" as="geometry" />
        </mxCell>
        <mxCell id="RRASFoo9B7p19ly4RnA5-7" value="" style="html=1;points=[];perimeter=orthogonalPerimeter;outlineConnect=0;targetShapes=umlLifeline;portConstraint=eastwest;newEdgeStyle={&quot;edgeStyle&quot;:&quot;elbowEdgeStyle&quot;,&quot;elbow&quot;:&quot;vertical&quot;,&quot;curved&quot;:0,&quot;rounded&quot;:0};fontFamily=Architects Daughter;fontSource=https%3A%2F%2Ffonts.googleapis.com%2Fcss%3Ffamily%3DArchitects%2BDaughter;sketch=1;curveFitting=1;jiggle=2;hachureGap=4;fontSize=20;" vertex="1" parent="RRASFoo9B7p19ly4RnA5-6">
          <mxGeometry x="45" y="80" width="10" height="170" as="geometry" />
        </mxCell>
        <mxCell id="RRASFoo9B7p19ly4RnA5-14" value="" style="edgeStyle=elbowEdgeStyle;rounded=0;sketch=1;hachureGap=4;jiggle=2;curveFitting=1;orthogonalLoop=1;jettySize=auto;html=1;elbow=horizontal;curved=0;fontFamily=Architects Daughter;fontSource=https%3A%2F%2Ffonts.googleapis.com%2Fcss%3Ffamily%3DArchitects%2BDaughter;fontSize=16;startArrow=classic;startFill=1;" edge="1" parent="RRASFoo9B7p19ly4RnA5-55">
          <mxGeometry relative="1" as="geometry">
            <mxPoint x="275" y="209.99999999999977" as="sourcePoint" />
            <mxPoint x="445" y="209.99999999999977" as="targetPoint" />
          </mxGeometry>
        </mxCell>
        <mxCell id="RRASFoo9B7p19ly4RnA5-79" value="&lt;font style=&quot;font-size: 12px;&quot;&gt;Jointures&lt;/font&gt;" style="edgeLabel;html=1;align=center;verticalAlign=middle;resizable=0;points=[];fontSize=20;fontFamily=Architects Daughter;" vertex="1" connectable="0" parent="RRASFoo9B7p19ly4RnA5-14">
          <mxGeometry x="0.3343" y="3" relative="1" as="geometry">
            <mxPoint x="-29" y="3" as="offset" />
          </mxGeometry>
        </mxCell>
        <mxCell id="RRASFoo9B7p19ly4RnA5-9" value="&lt;font style=&quot;font-size: 12px;&quot;&gt;:Ligues&lt;/font&gt;" style="shape=umlLifeline;perimeter=lifelinePerimeter;whiteSpace=wrap;html=1;container=0;dropTarget=0;collapsible=0;recursiveResize=0;outlineConnect=0;portConstraint=eastwest;newEdgeStyle={&quot;edgeStyle&quot;:&quot;elbowEdgeStyle&quot;,&quot;elbow&quot;:&quot;vertical&quot;,&quot;curved&quot;:0,&quot;rounded&quot;:0};fontFamily=Architects Daughter;fontSource=https%3A%2F%2Ffonts.googleapis.com%2Fcss%3Ffamily%3DArchitects%2BDaughter;sketch=1;curveFitting=1;jiggle=2;hachureGap=4;fontSize=20;" vertex="1" parent="RRASFoo9B7p19ly4RnA5-55">
          <mxGeometry x="220" y="50" width="100" height="300" as="geometry" />
        </mxCell>
        <mxCell id="RRASFoo9B7p19ly4RnA5-10" value="" style="html=1;points=[];perimeter=orthogonalPerimeter;outlineConnect=0;targetShapes=umlLifeline;portConstraint=eastwest;newEdgeStyle={&quot;edgeStyle&quot;:&quot;elbowEdgeStyle&quot;,&quot;elbow&quot;:&quot;vertical&quot;,&quot;curved&quot;:0,&quot;rounded&quot;:0};fontFamily=Architects Daughter;fontSource=https%3A%2F%2Ffonts.googleapis.com%2Fcss%3Ffamily%3DArchitects%2BDaughter;sketch=1;curveFitting=1;jiggle=2;hachureGap=4;fontSize=20;" vertex="1" parent="RRASFoo9B7p19ly4RnA5-9">
          <mxGeometry x="45" y="80" width="10" height="170" as="geometry" />
        </mxCell>
        <mxCell id="RRASFoo9B7p19ly4RnA5-12" value="&lt;font style=&quot;font-size: 12px;&quot;&gt;:Motifs&amp;nbsp;&lt;/font&gt;" style="shape=umlLifeline;perimeter=lifelinePerimeter;whiteSpace=wrap;html=1;container=0;dropTarget=0;collapsible=0;recursiveResize=0;outlineConnect=0;portConstraint=eastwest;newEdgeStyle={&quot;edgeStyle&quot;:&quot;elbowEdgeStyle&quot;,&quot;elbow&quot;:&quot;vertical&quot;,&quot;curved&quot;:0,&quot;rounded&quot;:0};fontFamily=Architects Daughter;fontSource=https%3A%2F%2Ffonts.googleapis.com%2Fcss%3Ffamily%3DArchitects%2BDaughter;sketch=1;curveFitting=1;jiggle=2;hachureGap=4;fontSize=20;" vertex="1" parent="RRASFoo9B7p19ly4RnA5-55">
          <mxGeometry x="400" y="50" width="100" height="300" as="geometry" />
        </mxCell>
        <mxCell id="RRASFoo9B7p19ly4RnA5-13" value="" style="html=1;points=[];perimeter=orthogonalPerimeter;outlineConnect=0;targetShapes=umlLifeline;portConstraint=eastwest;newEdgeStyle={&quot;edgeStyle&quot;:&quot;elbowEdgeStyle&quot;,&quot;elbow&quot;:&quot;vertical&quot;,&quot;curved&quot;:0,&quot;rounded&quot;:0};fontFamily=Architects Daughter;fontSource=https%3A%2F%2Ffonts.googleapis.com%2Fcss%3Ffamily%3DArchitects%2BDaughter;sketch=1;curveFitting=1;jiggle=2;hachureGap=4;fontSize=20;" vertex="1" parent="RRASFoo9B7p19ly4RnA5-12">
          <mxGeometry x="45" y="80" width="10" height="170" as="geometry" />
        </mxCell>
        <mxCell id="RRASFoo9B7p19ly4RnA5-69" style="edgeStyle=elbowEdgeStyle;rounded=0;sketch=1;hachureGap=4;jiggle=2;curveFitting=1;orthogonalLoop=1;jettySize=auto;html=1;elbow=vertical;curved=0;fontFamily=Architects Daughter;fontSource=https%3A%2F%2Ffonts.googleapis.com%2Fcss%3Ffamily%3DArchitects%2BDaughter;fontSize=16;" edge="1" parent="1" target="RRASFoo9B7p19ly4RnA5-43">
          <mxGeometry relative="1" as="geometry">
            <mxPoint x="309" y="249.63" as="sourcePoint" />
            <mxPoint x="645" y="249.63" as="targetPoint" />
          </mxGeometry>
        </mxCell>
        <mxCell id="RRASFoo9B7p19ly4RnA5-76" value="&lt;font style=&quot;font-size: 12px;&quot;&gt;Connection()&lt;br&gt;&lt;/font&gt;" style="edgeLabel;html=1;align=center;verticalAlign=middle;resizable=0;points=[];fontSize=20;fontFamily=Architects Daughter;" vertex="1" connectable="0" parent="RRASFoo9B7p19ly4RnA5-69">
          <mxGeometry x="-0.4679" y="-3" relative="1" as="geometry">
            <mxPoint y="-3" as="offset" />
          </mxGeometry>
        </mxCell>
        <mxCell id="RRASFoo9B7p19ly4RnA5-80" value="&lt;font style=&quot;font-size: 16px;&quot;&gt;Inscription &amp;amp; Connection&lt;/font&gt;" style="swimlane;whiteSpace=wrap;html=1;sketch=1;hachureGap=4;jiggle=2;curveFitting=1;fontFamily=Architects Daughter;fontSource=https%3A%2F%2Ffonts.googleapis.com%2Fcss%3Ffamily%3DArchitects%2BDaughter;fontSize=20;fillColor=#ffe6cc;strokeColor=#d79b00;" vertex="1" parent="1">
          <mxGeometry x="240" y="-10" width="610" height="360" as="geometry" />
        </mxCell>
        <mxCell id="RRASFoo9B7p19ly4RnA5-45" value="" style="edgeStyle=elbowEdgeStyle;rounded=0;sketch=1;hachureGap=4;jiggle=2;curveFitting=1;orthogonalLoop=1;jettySize=auto;html=1;elbow=vertical;curved=0;fontFamily=Architects Daughter;fontSource=https%3A%2F%2Ffonts.googleapis.com%2Fcss%3Ffamily%3DArchitects%2BDaughter;fontSize=16;" edge="1" parent="RRASFoo9B7p19ly4RnA5-80">
          <mxGeometry relative="1" as="geometry">
            <mxPoint x="220.00142857142862" y="210.41714285714286" as="sourcePoint" />
            <mxPoint x="535" y="209.99894736842103" as="targetPoint" />
          </mxGeometry>
        </mxCell>
        <mxCell id="RRASFoo9B7p19ly4RnA5-56" value="&lt;font style=&quot;font-size: 12px;&quot;&gt;CreatDemandeur()&lt;/font&gt;" style="edgeLabel;html=1;align=center;verticalAlign=middle;resizable=0;points=[];fontSize=20;fontFamily=Architects Daughter;" vertex="1" connectable="0" parent="RRASFoo9B7p19ly4RnA5-45">
          <mxGeometry x="-0.1242" y="4" relative="1" as="geometry">
            <mxPoint x="-48" y="4" as="offset" />
          </mxGeometry>
        </mxCell>
        <mxCell id="RRASFoo9B7p19ly4RnA5-61" style="edgeStyle=elbowEdgeStyle;rounded=0;sketch=1;hachureGap=4;jiggle=2;curveFitting=1;orthogonalLoop=1;jettySize=auto;html=1;elbow=vertical;curved=0;fontFamily=Architects Daughter;fontSource=https%3A%2F%2Ffonts.googleapis.com%2Fcss%3Ffamily%3DArchitects%2BDaughter;fontSize=16;" edge="1" parent="RRASFoo9B7p19ly4RnA5-80">
          <mxGeometry relative="1" as="geometry">
            <mxPoint x="379.4473684210525" y="260.45526315789476" as="sourcePoint" />
            <mxPoint x="535" y="260.45526315789476" as="targetPoint" />
          </mxGeometry>
        </mxCell>
        <mxCell id="RRASFoo9B7p19ly4RnA5-63" value="&lt;font style=&quot;font-size: 12px;&quot;&gt;GetDemandeur()&lt;/font&gt;" style="edgeLabel;html=1;align=center;verticalAlign=middle;resizable=0;points=[];fontSize=20;fontFamily=Architects Daughter;" vertex="1" connectable="0" parent="RRASFoo9B7p19ly4RnA5-61">
          <mxGeometry x="-0.0822" y="2" relative="1" as="geometry">
            <mxPoint as="offset" />
          </mxGeometry>
        </mxCell>
        <mxCell id="RRASFoo9B7p19ly4RnA5-48" value="&lt;font style=&quot;font-size: 12px;&quot;&gt;:Inscription&lt;/font&gt;" style="shape=umlLifeline;perimeter=lifelinePerimeter;whiteSpace=wrap;html=1;container=0;dropTarget=0;collapsible=0;recursiveResize=0;outlineConnect=0;portConstraint=eastwest;newEdgeStyle={&quot;edgeStyle&quot;:&quot;elbowEdgeStyle&quot;,&quot;elbow&quot;:&quot;vertical&quot;,&quot;curved&quot;:0,&quot;rounded&quot;:0};fontFamily=Architects Daughter;fontSource=https%3A%2F%2Ffonts.googleapis.com%2Fcss%3Ffamily%3DArchitects%2BDaughter;sketch=1;curveFitting=1;jiggle=2;hachureGap=4;fontSize=20;" vertex="1" parent="RRASFoo9B7p19ly4RnA5-80">
          <mxGeometry x="170" y="50" width="100" height="300" as="geometry" />
        </mxCell>
        <mxCell id="RRASFoo9B7p19ly4RnA5-49" value="" style="html=1;points=[];perimeter=orthogonalPerimeter;outlineConnect=0;targetShapes=umlLifeline;portConstraint=eastwest;newEdgeStyle={&quot;edgeStyle&quot;:&quot;elbowEdgeStyle&quot;,&quot;elbow&quot;:&quot;vertical&quot;,&quot;curved&quot;:0,&quot;rounded&quot;:0};fontFamily=Architects Daughter;fontSource=https%3A%2F%2Ffonts.googleapis.com%2Fcss%3Ffamily%3DArchitects%2BDaughter;sketch=1;curveFitting=1;jiggle=2;hachureGap=4;fontSize=20;" vertex="1" parent="RRASFoo9B7p19ly4RnA5-48">
          <mxGeometry x="45" y="70" width="10" height="190" as="geometry" />
        </mxCell>
        <mxCell id="RRASFoo9B7p19ly4RnA5-42" value="&lt;font style=&quot;font-size: 12px;&quot;&gt;:Connection&lt;/font&gt;" style="shape=umlLifeline;perimeter=lifelinePerimeter;whiteSpace=wrap;html=1;container=0;dropTarget=0;collapsible=0;recursiveResize=0;outlineConnect=0;portConstraint=eastwest;newEdgeStyle={&quot;edgeStyle&quot;:&quot;elbowEdgeStyle&quot;,&quot;elbow&quot;:&quot;vertical&quot;,&quot;curved&quot;:0,&quot;rounded&quot;:0};fontFamily=Architects Daughter;fontSource=https%3A%2F%2Ffonts.googleapis.com%2Fcss%3Ffamily%3DArchitects%2BDaughter;sketch=1;curveFitting=1;jiggle=2;hachureGap=4;fontSize=20;" vertex="1" parent="RRASFoo9B7p19ly4RnA5-80">
          <mxGeometry x="330" y="50" width="100" height="300" as="geometry" />
        </mxCell>
        <mxCell id="RRASFoo9B7p19ly4RnA5-43" value="" style="html=1;points=[];perimeter=orthogonalPerimeter;outlineConnect=0;targetShapes=umlLifeline;portConstraint=eastwest;newEdgeStyle={&quot;edgeStyle&quot;:&quot;elbowEdgeStyle&quot;,&quot;elbow&quot;:&quot;vertical&quot;,&quot;curved&quot;:0,&quot;rounded&quot;:0};fontFamily=Architects Daughter;fontSource=https%3A%2F%2Ffonts.googleapis.com%2Fcss%3Ffamily%3DArchitects%2BDaughter;sketch=1;curveFitting=1;jiggle=2;hachureGap=4;fontSize=20;" vertex="1" parent="RRASFoo9B7p19ly4RnA5-42">
          <mxGeometry x="45" y="70" width="10" height="190" as="geometry" />
        </mxCell>
        <mxCell id="RRASFoo9B7p19ly4RnA5-1" value="&lt;font style=&quot;font-size: 12px;&quot;&gt;:Demandeurs&amp;nbsp;&lt;/font&gt;" style="shape=umlLifeline;perimeter=lifelinePerimeter;whiteSpace=wrap;html=1;container=0;dropTarget=0;collapsible=0;recursiveResize=0;outlineConnect=0;portConstraint=eastwest;newEdgeStyle={&quot;edgeStyle&quot;:&quot;elbowEdgeStyle&quot;,&quot;elbow&quot;:&quot;vertical&quot;,&quot;curved&quot;:0,&quot;rounded&quot;:0};fontFamily=Architects Daughter;fontSource=https%3A%2F%2Ffonts.googleapis.com%2Fcss%3Ffamily%3DArchitects%2BDaughter;sketch=1;curveFitting=1;jiggle=2;hachureGap=4;fontSize=20;" vertex="1" parent="RRASFoo9B7p19ly4RnA5-80">
          <mxGeometry x="490" y="50" width="100" height="300" as="geometry" />
        </mxCell>
        <mxCell id="RRASFoo9B7p19ly4RnA5-2" value="" style="html=1;points=[];perimeter=orthogonalPerimeter;outlineConnect=0;targetShapes=umlLifeline;portConstraint=eastwest;newEdgeStyle={&quot;edgeStyle&quot;:&quot;elbowEdgeStyle&quot;,&quot;elbow&quot;:&quot;vertical&quot;,&quot;curved&quot;:0,&quot;rounded&quot;:0};fontFamily=Architects Daughter;fontSource=https%3A%2F%2Ffonts.googleapis.com%2Fcss%3Ffamily%3DArchitects%2BDaughter;sketch=1;curveFitting=1;jiggle=2;hachureGap=4;fontSize=20;" vertex="1" parent="RRASFoo9B7p19ly4RnA5-1">
          <mxGeometry x="45" y="70" width="10" height="180" as="geometry" />
        </mxCell>
      </root>
    </mxGraphModel>
  </diagram>
</mxfile>
